<svg width="32" height="20" viewBox="0 0 32 32" fill="none" xmlns="http://www.w3.org/2000/svg">
<g clip-path="url(#clip0_160_173)">
<path d="M16 20.2667C18.3564 20.2667 20.2667 18.3565 20.2667 16.0001C20.2667 13.6436 18.3564 11.7334 16 11.7334C13.6436 11.7334 11.7334 13.6436 11.7334 16.0001C11.7334 18.3565 13.6436 20.2667 16 20.2667Z" fill="#106DE9"/>
<path d="M12 2.66675L9.56001 5.33341H5.33334C3.86667 5.33341 2.66667 6.53341 2.66667 8.00008V24.0001C2.66667 25.4667 3.86667 26.6667 5.33334 26.6667H26.6667C28.1333 26.6667 29.3333 25.4667 29.3333 24.0001V8.00008C29.3333 6.53341 28.1333 5.33341 26.6667 5.33341H22.44L20 2.66675H12ZM16 22.6667C12.32 22.6667 9.33334 19.6801 9.33334 16.0001C9.33334 12.3201 12.32 9.33342 16 9.33342C19.68 9.33342 22.6667 12.3201 22.6667 16.0001C22.6667 19.6801 19.68 22.6667 16 22.6667Z" fill="#106DE9"/>
</g>
<defs>
<clipPath id="clip0_160_173">
<rect width="32" height="32" fill="white"/>
</clipPath>
</defs>
</svg>
